<?xml version="1.0" encoding="UTF-8"?>
<svg width="18px" height="22px" viewBox="0 0 18 22" version="1.1" xmlns="http://www.w3.org/2000/svg" xmlns:xlink="http://www.w3.org/1999/xlink">
    <!-- Generator: Sketch 47 (45396) - http://www.bohemiancoding.com/sketch -->
    <title>&amp;</title>
    <desc>Created with Sketch.</desc>
    <defs></defs>
    <g id="Landings" stroke="none" stroke-width="1" fill="none" fill-rule="evenodd">
        <g id="Landing-Delis-Dobrom-E" transform="translate(-285.000000, -792.000000)" fill="#636F81">
            <path d="M303,812.457565 C303,812.692088 302.872535,812.935628 302.617602,813.188192 C302.32625,813.476836 302.034903,813.621156 301.743551,813.621156 C301.488618,813.621156 301.19727,813.476836 300.869499,813.188192 L297.864947,810.211562 L297.728376,810.373924 C296.708644,811.528501 295.638852,812.421481 294.518968,813.052891 C293.399084,813.6843 292.156304,814 290.790592,814 C289.04248,814 287.640369,813.53096 286.584219,812.592866 C285.528068,811.654772 285,810.364912 285,808.723247 C285,807.58671 285.373289,806.53588 286.119879,805.570726 C286.866468,804.605571 288.013649,803.509641 289.561457,802.282903 L289.725341,802.174662 L288.305008,800.767528 C287.030343,799.468628 286.39302,798.070528 286.39302,796.573186 C286.39302,795.725293 286.61153,794.949573 287.048558,794.246002 C287.485586,793.542432 288.086491,792.992212 288.85129,792.595326 C289.616089,792.19844 290.471922,792 291.418816,792 C292.38392,792 293.248858,792.20746 294.013657,792.622386 C294.778456,793.037312 295.37936,793.610082 295.816388,794.340713 C296.253416,795.071344 296.471927,795.878634 296.471927,796.762608 C296.453718,797.790903 296.185132,798.697413 295.666161,799.482165 C295.14719,800.266917 294.25949,801.155387 293.003035,802.147601 L297.919575,807.01845 L300.104704,804.718327 C300.450685,804.339482 300.760241,804.150062 301.033384,804.150062 C301.233688,804.150062 301.443095,804.258302 301.661608,804.474785 C301.95296,804.745389 302.098634,805.034029 302.098634,805.340713 C302.098634,805.647398 301.97117,805.936038 301.716237,806.206642 L299.47648,808.560886 L302.508346,811.564576 C302.836117,811.889301 303,812.186961 303,812.457565 Z M291.395939,800.516129 L291.697462,800.304985 C292.592898,799.618765 293.195938,798.998536 293.506599,798.444282 C293.81726,797.890027 293.981726,797.278596 294,796.609971 C294,795.906155 293.75787,795.316718 293.273604,794.841642 C292.789338,794.366567 292.126908,794.129032 291.286294,794.129032 C290.500504,794.129032 289.856348,794.35337 289.353807,794.802053 C288.851267,795.250735 288.6,795.791786 288.6,796.42522 C288.6,797.357776 289.047711,798.255128 289.943147,799.117302 L291.395939,800.516129 Z M296.16,808.831024 L291.084,803.709677 L290.733,803.983546 C289.688995,804.823415 288.892503,805.626755 288.3435,806.393592 C287.794497,807.160428 287.52,807.95464 287.52,808.77625 C287.52,809.798699 287.794497,810.570088 288.3435,811.090442 C288.892503,811.610795 289.679995,811.870968 290.706,811.870968 C291.714005,811.870968 292.618496,811.638182 293.4195,811.172602 C294.220504,810.707023 295.070995,809.999536 295.971,809.050119 L296.16,808.831024 Z" id="&amp;"></path>
        </g>
    </g>
</svg>