<?xml version="1.0" encoding="UTF-8" standalone="no"?>
<svg width="1007px" height="278px" viewBox="0 0 1007 278" version="1.1" xmlns="http://www.w3.org/2000/svg" xmlns:xlink="http://www.w3.org/1999/xlink">
    <!-- Generator: Sketch 47.1 (45422) - http://www.bohemiancoding.com/sketch -->
    <title>Page 1</title>
    <desc>Created with Sketch.</desc>
    <defs></defs>
    <g id="Page-1" stroke="none" stroke-width="1" fill="none" fill-rule="evenodd">
        <g id="Landing-Delis-Dobrom-ะก" transform="translate(-181.000000, -1097.000000)" fill="#9459DA">
            <g id="Group-11" transform="translate(0.000000, 1097.000000)">
                <g id="Group-2-Copy-4">
                    <g id="Page-1" transform="translate(181.000000, -272.000000)">
                        <path d="M887.968672,492.375978 C887.184029,492.375978 886.600931,491.868334 886.600931,490.964094 L886.610163,481.874097 L885.533201,481.874097 C884.657786,481.874097 884.293157,481.239542 884.293157,480.624024 C884.294696,479.991055 884.750097,479.375537 885.53474,479.375537 L888.125601,479.375537 C888.908706,479.375537 889.347183,479.935532 889.347183,480.658924 L889.337952,490.964094 C889.337952,491.868334 888.753316,492.375978 887.968672,492.375978 M882.106926,488.773294 L879.462217,488.773294 L879.460678,491.398764 C879.45914,492.050769 879.039125,492.483853 878.363716,492.483853 C877.688308,492.483853 877.269831,492.050769 877.27137,491.398764 L877.272908,488.773294 L874.628199,488.773294 C873.95279,488.773294 873.532776,488.338623 873.534314,487.686618 C873.534314,487.034613 873.955867,486.599943 874.629738,486.599943 L877.274447,486.599943 L877.275985,483.974473 C877.277524,483.322468 877.697539,482.889384 878.372947,482.887798 C879.046817,482.889384 879.466832,483.322468 879.465294,483.974473 L879.463755,486.599943 L882.108464,486.599943 C882.783873,486.599943 883.202349,487.034613 883.202349,487.686618 C883.200811,488.338623 882.780796,488.773294 882.106926,488.773294 M884.573167,475.006628 L878.682189,475.211271 C872.580434,475.422261 867.800264,480.695411 868.006426,486.987022 C868.212587,493.277046 873.325076,498.20595 879.426831,497.993374 L885.317809,497.788731 C891.421103,497.576155 896.199734,492.304591 895.993572,486.01298 C895.78895,479.72137 890.674922,474.794052 884.573167,475.006628" id="Fill-3-Copy"></path>
                        <path d="M117.038509,278.827532 C116.795256,280.793953 115.332602,281.945871 113.232784,281.690063 L105.004572,280.690374 L104.03627,288.610987 C103.796156,290.578977 102.325656,291.732465 100.228976,291.476657 C98.1260192,291.22085 96.9850865,289.753488 97.2252002,287.785498 L98.1935021,279.864886 L89.9652901,278.863627 C87.8654718,278.60782 86.7182616,277.142028 86.9615141,275.175607 C87.2016279,273.209186 88.6674203,272.055699 90.7656693,272.313075 L98.9954507,273.311195 L99.9637526,265.389013 C100.203866,263.424161 101.669659,262.270674 103.771047,262.523343 C105.870865,262.77915 107.014936,264.24965 106.774823,266.216071 L105.806521,274.138253 L114.034733,275.136373 C116.132982,275.393749 117.278622,276.859541 117.038509,278.827532 M105.615057,246.214446 C88.6124924,244.218207 73.2106857,256.382397 71.2144458,273.384955 C69.218206,290.387514 81.3824003,305.789315 98.3849654,307.785554 C115.38753,309.781793 130.789337,297.617603 132.785577,280.615045 C134.781817,263.612486 122.616053,248.210685 105.615057,246.214446" id="Fill-5"></path>
                        <path d="M788.038509,568.827532 C787.795256,570.793953 786.332602,571.945871 784.232784,571.690063 L776.004572,570.690374 L775.03627,578.610987 C774.796156,580.578977 773.325656,581.732465 771.228976,581.476657 C769.126019,581.22085 767.985086,579.753488 768.2252,577.785498 L769.193502,569.864886 L760.96529,568.863627 C758.865472,568.60782 757.718262,567.142028 757.961514,565.175607 C758.201628,563.209186 759.66742,562.055699 761.765669,562.313075 L769.995451,563.311195 L770.963753,555.389013 C771.203866,553.424161 772.669659,552.270674 774.771047,552.523343 C776.870865,552.77915 778.014936,554.24965 777.774823,556.216071 L776.806521,564.138253 L785.034733,565.136373 C787.132982,565.393749 788.278622,566.859541 788.038509,568.827532 M776.615057,536.214446 C759.612492,534.218207 744.210686,546.382397 742.214446,563.384955 C740.218206,580.387514 752.3824,595.789315 769.384965,597.785554 C786.38753,599.781793 801.789337,587.617603 803.785577,570.615045 C805.781817,553.612486 793.616053,538.210685 776.615057,536.214446" id="Fill-5-Copy"></path>
                        <path d="M42.6700358,271.597835 L38.6589872,271.597835 L38.6558512,275.459922 C38.6542831,276.417996 38.0160905,277.057757 36.9937278,277.056189 C35.9697971,277.057757 35.3347406,276.417996 35.3363086,275.459922 L35.3394447,271.597835 L31.3268281,271.597835 C30.3044655,271.597835 29.6678409,270.96121 29.6694089,270 C29.6694089,269.041926 30.3076016,268.403733 31.3299642,268.403733 L35.3410128,268.403733 L35.3441488,264.541646 C35.3457169,263.583572 35.9823415,262.942243 37.0062722,262.942243 C38.0302029,262.943811 38.6652594,263.583572 38.6636914,264.541646 L38.6605553,268.403733 L42.6716038,268.403733 C43.6955345,268.403733 44.3305911,269.040358 44.3305911,270 C44.329023,270.959642 43.6923984,271.597835 42.6700358,271.597835 M36.9404144,255.00011 C28.6564545,255.034607 21.9671922,261.77562 22.0001211,270.061154 C22.034618,278.343552 28.7756256,285.031251 37.0595856,284.99989 C45.3435455,284.965393 52.0328078,278.22438 51.9998789,269.938846 C51.965382,261.656448 45.2243744,254.968749 36.9404144,255.00011" id="Fill-9"></path>
                        <path d="M712.670036,561.597835 L708.658987,561.597835 L708.655851,565.459922 C708.654283,566.417996 708.01609,567.057757 706.993728,567.056189 C705.969797,567.057757 705.334741,566.417996 705.336309,565.459922 L705.339445,561.597835 L701.326828,561.597835 C700.304465,561.597835 699.667841,560.96121 699.669409,560 C699.669409,559.041926 700.307602,558.403733 701.329964,558.403733 L705.341013,558.403733 L705.344149,554.541646 C705.345717,553.583572 705.982341,552.942243 707.006272,552.942243 C708.030203,552.943811 708.665259,553.583572 708.663691,554.541646 L708.660555,558.403733 L712.671604,558.403733 C713.695535,558.403733 714.330591,559.040358 714.330591,560 C714.329023,560.959642 713.692398,561.597835 712.670036,561.597835 M706.940414,545.00011 C698.656455,545.034607 691.967192,551.77562 692.000121,560.061154 C692.034618,568.343552 698.775626,575.031251 707.059586,574.99989 C715.343545,574.965393 722.032808,568.22438 721.999879,559.938846 C721.965382,551.656448 715.224374,544.968749 706.940414,545.00011" id="Fill-9-Copy"></path>
                        <path d="M832.401934,491.958133 L829.995004,491.958133 L829.9934,494.275265 C829.9934,494.850939 829.610151,495.234188 828.995991,495.234188 C828.381831,495.234188 828.000186,494.850939 828.001789,494.275265 L828.003393,491.958133 L825.596463,491.958133 C824.982302,491.958133 824.600657,491.576488 824.602261,490.99921 C824.602261,490.425138 824.983906,490.04189 825.598066,490.04189 L828.004996,490.04189 L828.0066,487.724758 C828.0066,487.149083 828.389849,486.765835 829.004009,486.765835 C829.618169,486.765835 829.998211,487.149083 829.998211,487.723155 L829.996607,490.04189 L832.403537,490.04189 C833.017698,490.04189 833.399343,490.423535 833.399343,490.99921 C833.397739,491.574885 833.016094,491.958133 832.401934,491.958133 M828.96392,482.000081 C823.992911,482.020927 819.980826,486.065083 820.000069,491.036091 C820.020915,496.005496 824.065071,500.017581 829.03608,499.999942 C834.005485,499.979096 838.019174,495.933336 837.999931,490.963932 C837.980688,485.992923 833.934929,481.979235 828.96392,482.000081" id="Fill-13-Copy"></path>
                        <path d="M735.268445,516.639522 L733.662627,516.639522 L733.662627,518.184276 C733.660977,518.567164 733.406818,518.822973 732.997524,518.822973 C732.58658,518.822973 732.334072,518.567164 732.334072,518.184276 L732.335723,516.639522 L730.729904,516.639522 C730.32061,516.637871 730.066452,516.383713 730.068102,515.999175 C730.068102,515.616287 730.322261,515.362129 730.731555,515.362129 L732.337373,515.362129 L732.337373,513.815724 C732.337373,513.432836 732.593182,513.177027 733.002476,513.175377 C733.411769,513.177027 733.665928,513.432836 733.665928,513.815724 L733.664277,515.362129 L735.268445,515.362129 C735.67939,515.362129 735.931898,515.616287 735.931898,515.999175 C735.931898,516.383713 735.677739,516.639522 735.268445,516.639522 M732.97607,510.000049 C729.662109,510.011601 726.986846,512.70997 727.000049,516.02393 C727.013252,519.337891 729.70997,522.013154 733.02393,521.999951 C736.337891,521.986748 739.013154,519.288379 738.999951,515.97607 C738.986748,512.662109 736.29003,509.986846 732.97607,510.000049" id="Fill-15-Copy"></path>
                        <path d="M1003.26845,369.637871 L1001.66428,369.637871 L1001.66263,371.184276 C1001.66263,371.567164 1001.40682,371.821322 1000.99752,371.821322 C1000.58658,371.821322 1000.33407,371.567164 1000.33407,371.184276 L1000.33572,369.637871 L998.729904,369.637871 C998.32061,369.637871 998.066452,369.383713 998.068102,368.999175 C998.068102,368.616287 998.322261,368.360478 998.731555,368.360478 L1000.33737,368.360478 L1000.33737,366.815724 C1000.33902,366.432836 1000.59318,366.175377 1001.00248,366.175377 C1001.41177,366.175377 1001.66593,366.432836 1001.66593,366.815724 L1001.66428,368.360478 L1003.26845,368.360478 C1003.67939,368.362129 1003.9319,368.616287 1003.9319,368.999175 C1003.9319,369.383713 1003.67774,369.637871 1003.26845,369.637871 M1000.97607,363.000049 C997.662109,363.011601 994.986846,365.70832 995.000049,369.02393 C995.013252,372.337891 997.70997,375.013154 1001.02393,374.999951 C1004.33789,374.985098 1007.01315,372.288379 1006.99995,368.97607 C1006.98675,365.662109 1004.29003,362.986846 1000.97607,363.000049" id="Fill-17-Copy"></path>
                        <path d="M837.268436,381.638783 L835.66427,381.638783 L835.66262,383.185397 C835.66262,383.568337 835.406811,383.82253 834.997518,383.82253 C834.588225,383.82253 834.334067,383.568337 834.334067,383.185397 L834.335717,381.638783 L832.7299,381.638783 C832.322257,381.638783 832.068099,381.38459 832.068099,381 C832.068099,380.61706 832.322257,380.361217 832.731551,380.361217 L834.337367,380.361217 L834.339018,378.816253 C834.339018,378.433314 834.593176,378.17582 835.002469,378.17582 C835.411763,378.17582 835.665921,378.433314 835.665921,378.816253 L835.66427,380.361217 L837.268436,380.361217 C837.67938,380.361217 837.933538,380.61706 837.931888,381 C837.931888,381.38459 837.67773,381.638783 837.268436,381.638783 M834.976063,375.000062 C831.663757,375.011616 828.986846,377.708699 829.000049,381.023108 C829.013252,384.337517 831.709967,387.014794 835.023924,386.999938 C838.337881,386.986734 841.014792,384.28965 840.999938,380.976892 C840.986735,377.662483 838.29002,374.985206 834.976063,375.000062" id="Fill-19-Copy"></path>
                        <path d="M763.268445,296.639522 L761.662627,296.639522 L761.662627,298.184276 C761.660977,298.567164 761.406818,298.822973 760.997524,298.822973 C760.58658,298.822973 760.334072,298.567164 760.334072,298.184276 L760.335723,296.639522 L758.729904,296.639522 C758.32061,296.637871 758.066452,296.383713 758.068102,295.999175 C758.068102,295.616287 758.322261,295.362129 758.731555,295.362129 L760.337373,295.362129 L760.337373,293.815724 C760.337373,293.432836 760.593182,293.177027 761.002476,293.175377 C761.411769,293.177027 761.665928,293.432836 761.665928,293.815724 L761.664277,295.362129 L763.268445,295.362129 C763.67939,295.362129 763.931898,295.616287 763.931898,295.999175 C763.931898,296.383713 763.677739,296.639522 763.268445,296.639522 M760.97607,290.000049 C757.662109,290.011601 754.986846,292.70997 755.000049,296.02393 C755.013252,299.337891 757.70997,302.013154 761.02393,301.999951 C764.337891,301.986748 767.013154,299.288379 766.999951,295.97607 C766.986748,292.662109 764.29003,289.986846 760.97607,290.000049" id="Fill-21-Copy"></path>
                        <path d="M772.689979,478.020064 L766.944547,478.19136 L767.108345,483.662048 C767.148905,485.021618 766.261273,485.955262 764.796445,485.998472 C763.330057,486.041682 762.394065,485.165137 762.353505,483.805567 L762.191267,478.334879 L756.445835,478.506176 C754.979447,478.549386 754.040335,477.672841 754.001335,476.316357 C753.960776,474.956787 754.846848,474.023144 756.310116,473.979934 L762.057108,473.808637 L761.893309,468.337949 C761.852749,466.979922 762.737262,466.044736 764.20521,466.001526 C765.668478,465.958316 766.60759,466.836404 766.648149,468.19443 L766.810388,473.666662 L772.55582,473.493822 C774.020648,473.450612 774.9582,474.325613 774.998759,475.685183 C775.037759,477.044754 774.154807,477.978397 772.689979,478.020064" id="Fill-23-Copy"></path>
                        <path d="M725.911491,494.230853 L714.983936,495.415363 L716.103498,506.066369 C716.3826,508.709964 714.829405,510.662329 712.043115,510.962447 C709.252095,511.267355 707.339379,509.69333 707.060277,507.048139 L705.940715,496.397133 L695.014737,497.583238 C692.22687,497.883357 690.306269,496.314121 690.031898,493.66893 C689.754373,491.023738 691.302837,489.074566 694.089127,488.772851 L705.016682,487.588342 L703.89712,476.937336 C703.619595,474.292144 705.168059,472.341375 707.957503,472.036468 C710.74537,471.73635 712.662816,473.310374 712.940342,475.955566 L714.059904,486.604975 L724.987458,485.41887 C727.773748,485.118751 729.689618,486.687987 729.96872,489.334775 C730.243092,491.979966 728.697781,493.930735 725.911491,494.230853" id="Fill-25-Copy"></path>
                        <path d="M931.034812,441.392689 L925.042869,440.31155 L923.988554,446.027718 C923.727758,447.447698 922.600293,448.221516 921.072093,447.944139 C919.540713,447.669915 918.767867,446.552527 919.030253,445.134123 L920.084568,439.417955 L914.092625,438.338392 C912.564425,438.061016 911.786808,436.946781 912.050784,435.526801 C912.31317,434.106821 913.437455,433.333002 914.965654,433.610379 L920.957598,434.689942 L922.011912,428.973774 C922.272708,427.55537 923.398583,426.781552 924.928373,427.054201 C926.456573,427.331578 927.2326,428.448965 926.970214,429.868945 L925.915899,435.583537 L931.907842,436.664676 C933.436042,436.942053 934.212068,438.056288 933.949682,439.476268 C933.685706,440.896248 932.563012,441.670066 931.034812,441.392689" id="Fill-27-Copy"></path>
                        <path d="M226.581507,298.380016 L213.503399,296.118137 L211.30586,308.643897 C210.760808,311.753784 208.315948,313.467044 204.981047,312.888642 C201.639844,312.313376 199.935373,309.883777 200.482001,306.772322 L202.679539,294.246562 L189.601431,291.984684 C186.266529,291.406282 184.552607,288.979818 185.10081,285.869931 C185.647437,282.758476 188.085996,281.043649 191.420898,281.623618 L204.499006,283.885497 L206.696544,271.359737 C207.243172,268.248282 209.68173,266.535023 213.022933,267.110289 C216.357835,267.688691 218.067031,270.119857 217.521979,273.229745 L215.322866,285.755505 L228.400974,288.018951 C231.735876,288.597352 233.445072,291.023816 232.90002,294.133703 C232.351817,297.242023 229.916409,298.958417 226.581507,298.380016" id="Fill-31"></path>
                        <path d="M42.8216648,348.8642 L29.6921425,349.538464 L30.3224095,362.392327 C30.4784161,365.584375 28.4955712,367.819761 25.1461078,367.989517 C21.7935242,368.164033 19.6141108,366.145998 19.4565441,362.95395 L18.8278371,350.0985 L5.69831478,350.774352 C2.35041138,350.945694 0.160077567,348.929246 0.00875108591,345.737198 C-0.148815663,342.546737 1.83090913,340.309765 5.17881253,340.141595 L18.3083349,339.465744 L17.6780679,326.613467 C17.5220612,323.421419 19.5002259,321.186034 22.8543696,321.009932 C26.202273,320.840176 28.3879266,322.859797 28.5439333,326.051845 L29.1726402,338.905708 L42.3021626,338.231443 C45.650066,338.060101 47.8357196,340.074962 47.9917263,343.26701 C48.1446128,346.459058 46.1695682,348.694444 42.8216648,348.8642" id="Fill-33"></path>
                        <path d="M947.395422,524.822188 L944.125292,524.329332 L943.575789,527.052397 C943.439673,527.728438 942.827994,528.102078 941.994497,527.975593 C941.161001,527.850561 940.73417,527.322813 940.870285,526.646772 L941.419788,523.923707 L938.149657,523.432306 C937.316161,523.30582 936.887649,522.778072 937.025445,522.102031 C937.16156,521.42599 937.771559,521.05235 938.605056,521.178835 L941.873506,521.670237 L942.424689,518.948626 C942.560805,518.271131 943.170803,517.898945 944.0043,518.023976 C944.839477,518.150462 945.266308,518.67821 945.130193,519.354251 L944.58069,522.077316 L947.850821,522.568717 C948.684317,522.695203 949.111148,523.221497 948.975033,523.898992 C948.837237,524.575033 948.228919,524.947219 947.395422,524.822188" id="Fill-35-Copy"></path>
                        <path d="M860.395422,317.822188 L857.125292,317.329332 L856.575789,320.052397 C856.439673,320.728438 855.827994,321.102078 854.994497,320.975593 C854.15932,320.850561 853.73417,320.322813 853.870285,319.646772 L854.419788,316.923707 L851.149657,316.432306 C850.316161,316.30582 849.887649,315.778072 850.025445,315.102031 C850.16156,314.42599 850.769879,314.05235 851.605056,314.178835 L854.873506,314.670237 L855.424689,311.948626 C855.560805,311.271131 856.169123,310.898945 857.0043,311.023976 C857.839477,311.150462 858.266308,311.67821 858.130193,312.354251 L857.58069,315.077316 L860.850821,315.568717 C861.684317,315.695203 862.111148,316.221497 861.975033,316.897538 C861.837237,317.575033 861.228919,317.947219 860.395422,317.822188" id="Fill-37-Copy"></path>
                        <path d="M823.395422,389.822188 L820.125292,389.329332 L819.575789,392.052397 C819.439673,392.728438 818.827994,393.102078 817.994497,392.975593 C817.15932,392.850561 816.73417,392.322813 816.870285,391.646772 L817.419788,388.923707 L814.149657,388.430852 C813.316161,388.30582 812.887649,387.778072 813.025445,387.102031 C813.16156,386.42599 813.769879,386.05235 814.605056,386.178835 L817.873506,386.670237 L818.424689,383.948626 C818.560805,383.271131 819.169123,382.898945 820.0043,383.023976 C820.839477,383.149008 821.266308,383.67821 821.130193,384.354251 L820.58069,387.077316 L823.850821,387.568717 C824.684317,387.695203 825.111148,388.221497 824.975033,388.897538 C824.837237,389.575033 824.228919,389.947219 823.395422,389.822188" id="Fill-39-Copy"></path>
                        <path d="M695.924002,352.139087 L692.667382,352.834983 L693.438642,355.543692 C693.630608,356.217566 693.239881,356.776925 692.409163,356.953101 C691.576746,357.130746 690.934596,356.793075 690.74263,356.120669 L689.97137,353.409023 L686.714751,354.104919 C685.884033,354.281096 685.238485,353.943425 685.048218,353.271019 C684.856252,352.597145 685.24528,352.039254 686.075998,351.863077 L689.334316,351.167181 L688.563057,348.457004 C688.371091,347.78313 688.760119,347.225239 689.590837,347.046127 C690.421555,346.86995 691.065404,347.20909 691.25737,347.881495 L692.02863,350.591672 L695.286948,349.897245 C696.117666,349.721068 696.761515,350.057271 696.951782,350.731145 C697.143748,351.403551 696.75472,351.962911 695.924002,352.139087" id="Fill-41-Copy"></path>
                    </g>
                </g>
            </g>
        </g>
    </g>
</svg>