<?xml version="1.0" encoding="UTF-8" standalone="no"?>
<svg width="424px" height="424px" viewBox="0 0 424 424" version="1.1" xmlns="http://www.w3.org/2000/svg" xmlns:xlink="http://www.w3.org/1999/xlink">
    <!-- Generator: Sketch 47.1 (45422) - http://www.bohemiancoding.com/sketch -->
    <title>Group 7</title>
    <desc>Created with Sketch.</desc>
    <defs></defs>
    <g id="Page-1" stroke="none" stroke-width="1" fill="none" fill-rule="evenodd">
        <g id="Landing-Delis-Dobrom-С" transform="translate(-72.000000, -596.000000)">
            <g id="Group-7" transform="translate(74.000000, 598.000000)">
                <text id="В-поддержку-детского" font-family="Cormac-Book, Cormac" font-size="17" font-weight="300" line-spacing="26" fill="#636F81">
                    <tspan x="90.341" y="265">В поддержку детского хосписа</tspan>
                    <tspan x="160.823" y="291">Дом с Маяком</tspan>
                </text>
                <path d="M229,197.457565 C229,197.692088 228.872535,197.935628 228.617602,198.188192 C228.32625,198.476836 228.034903,198.621156 227.743551,198.621156 C227.488618,198.621156 227.19727,198.476836 226.869499,198.188192 L223.864947,195.211562 L223.728376,195.373924 C222.708644,196.528501 221.638852,197.421481 220.518968,198.052891 C219.399084,198.6843 218.156304,199 216.790592,199 C215.04248,199 213.640369,198.53096 212.584219,197.592866 C211.528068,196.654772 211,195.364912 211,193.723247 C211,192.58671 211.373289,191.53588 212.119879,190.570726 C212.866468,189.605571 214.013649,188.509641 215.561457,187.282903 L215.725341,187.174662 L214.305008,185.767528 C213.030343,184.468628 212.39302,183.070528 212.39302,181.573186 C212.39302,180.725293 212.61153,179.949573 213.048558,179.246002 C213.485586,178.542432 214.086491,177.992212 214.85129,177.595326 C215.616089,177.19844 216.471922,177 217.418816,177 C218.38392,177 219.248858,177.20746 220.013657,177.622386 C220.778456,178.037312 221.37936,178.610082 221.816388,179.340713 C222.253416,180.071344 222.471927,180.878634 222.471927,181.762608 C222.453718,182.790903 222.185132,183.697413 221.666161,184.482165 C221.14719,185.266917 220.25949,186.155387 219.003035,187.147601 L223.919575,192.01845 L226.104704,189.718327 C226.450685,189.339482 226.760241,189.150062 227.033384,189.150062 C227.233688,189.150062 227.443095,189.258302 227.661608,189.474785 C227.95296,189.745389 228.098634,190.034029 228.098634,190.340713 C228.098634,190.647398 227.97117,190.936038 227.716237,191.206642 L225.47648,193.560886 L228.508346,196.564576 C228.836117,196.889301 229,197.186961 229,197.457565 Z M217.395939,185.516129 L217.697462,185.304985 C218.592898,184.618765 219.195938,183.998536 219.506599,183.444282 C219.81726,182.890027 219.981726,182.278596 220,181.609971 C220,180.906155 219.75787,180.316718 219.273604,179.841642 C218.789338,179.366567 218.126908,179.129032 217.286294,179.129032 C216.500504,179.129032 215.856348,179.35337 215.353807,179.802053 C214.851267,180.250735 214.6,180.791786 214.6,181.42522 C214.6,182.357776 215.047711,183.255128 215.943147,184.117302 L217.395939,185.516129 Z M222.16,193.831024 L217.084,188.709677 L216.733,188.983546 C215.688995,189.823415 214.892503,190.626755 214.3435,191.393592 C213.794497,192.160428 213.52,192.95464 213.52,193.77625 C213.52,194.798699 213.794497,195.570088 214.3435,196.090442 C214.892503,196.610795 215.679995,196.870968 216.706,196.870968 C217.714005,196.870968 218.618496,196.638182 219.4195,196.172602 C220.220504,195.707023 221.070995,194.999536 221.971,194.050119 L222.16,193.831024 Z" id="&amp;" fill="#636F81"></path>
                <g id="Page-1" transform="translate(44.000000, 168.000000)" fill="#636F81">
                    <path d="M128.369747,17.4068659 C127.529655,17.404939 126.907587,16.8923832 126.911588,15.9886664 L126.957593,6.88983732 L125.803467,6.88405661 C124.867365,6.88020281 124.477323,6.2443253 124.481323,5.62771681 C124.485324,4.99569311 124.975377,4.37908461 125.817469,4.38293842 L128.591771,4.39449983 C129.431862,4.39835363 129.899913,4.96100888 129.895913,5.68552386 L129.843907,16.0002278 C129.837906,16.9039446 129.209838,17.4087928 128.369747,17.4068659 M122.105065,13.7746565 L119.270756,13.765022 L119.258755,16.3933157 C119.254754,17.0465353 118.802705,17.4781613 118.078626,17.4762344 C117.354547,17.4743075 116.908499,17.0369008 116.912499,16.3836812 L116.924501,13.7553875 L114.092192,13.745753 C113.368113,13.7418992 112.920065,13.3064194 112.924065,12.6531998 C112.928066,11.9999802 113.380115,11.5683543 114.102193,11.5702812 L116.936502,11.5818426 L116.950503,8.95354887 C116.952504,8.30032925 117.404553,7.8667764 118.128632,7.8687033 C118.85071,7.8725571 119.298759,8.30996375 119.294759,8.96125647 L119.282757,11.5895502 L122.115066,11.6011116 C122.839145,11.6049654 123.285193,12.0404451 123.283193,12.6936648 C123.279192,13.3449575 122.827143,13.7785103 122.105065,13.7746565 M124.805359,0.00501812222 L118.490671,0.186146867 C111.953959,0.374983218 106.809399,5.63157061 107.005421,11.9306117 C107.199442,18.227726 112.656036,23.1817898 119.194748,22.9948804 L125.507435,22.8137516 C132.046147,22.6268422 137.188707,17.3702548 136.994686,11.0712137 C136.800664,4.77217253 131.34407,-0.179964425 124.805359,0.00501812222" id="Fill-1"></path>
                    <path d="M19.331655,21.5 C19.331655,17.3892747 17.0415787,13.6875 12.5,13.6875 C7.95842131,13.6875 5.66834497,17.3892747 5.66834497,21.5 C5.66834497,25.6435185 7.88533377,29.3125 12.5,29.3125 C17.1146662,29.3125 19.331655,25.6435185 19.331655,21.5 M0,21.5 C0,14.4340278 5.08770505,9 12.5,9 C19.8046938,9 25,14.6037809 25,21.5 C25,28.53125 19.9488387,34 12.5,34 C5.12221861,34 0,28.53125 0,21.5" id="Fill-4"></path>
                    <path d="M70.4354354,34 C68.963964,34 67.8689599,33.0332575 67.8689599,31.307632 L67.8689599,18.4281904 L67.8020748,18.4281904 L56.7201747,32.860695 C56.1373191,33.6215389 55.2143052,34 54.5645646,34 C53.0930931,34 52,33.0332575 52,31.307632 L52,11.694329 C52,9.96870343 53.0930931,9 54.5645646,9 C56.036036,9 57.1291291,9.96870343 57.1291291,11.694329 L57.1291291,24.746333 L57.1979252,24.746333 L68.2798253,10.141266 C68.8626809,9.38042199 69.7856948,9 70.4354354,9 C71.9069069,9 73,9.96870343 73,11.694329 L73,31.307632 C73,33.0332575 71.9069069,34 70.4354354,34" id="Fill-6"></path>
                    <path d="M78,11.694329 C78,9.96870343 79.0949045,9 80.566242,9 C82.0356688,9 83.1305732,9.96870343 83.1305732,11.694329 L83.1305732,19.0145109 L93.8694268,19.0145109 L93.8694268,11.694329 C93.8694268,9.96870343 94.9643312,9 96.433758,9 C97.9050955,9 99,9.96870343 99,11.694329 L99,31.307632 C99,33.0332575 97.9050955,34 96.433758,34 C94.9643312,34 93.8694268,33.0332575 93.8694268,31.307632 L93.8694268,23.7795906 L83.1305732,23.7795906 L83.1305732,31.307632 C83.1305732,33.0332575 82.0356688,34 80.566242,34 C79.0949045,34 78,33.0332575 78,31.307632 L78,11.694329 Z" id="Fill-8"></path>
                    <path d="M39.5324804,29.1492537 L31.4681761,29.1492537 L31.0085107,29.1492537 L36.9135976,14.3959701 C37.0506908,14.0554478 37.375279,13.8358209 37.7401888,13.8358209 L41.1453413,13.8358209 L41.1453413,29.1492537 L39.5324804,29.1492537 Z M45.9839239,29.2318657 L45.9839239,11.4179104 C45.9839239,10.0840299 44.9012911,9 43.5646326,9 L37.7401888,9 C35.3833958,9 33.2967571,10.4144776 32.4217801,12.6006716 L25.7767933,29.2016418 C24.8897198,29.3285821 24.1236109,29.9149254 23.8252316,30.7813433 L23.1317015,32.7962687 C22.6982451,34.0596269 23.3695984,35.433806 24.6336781,35.8690299 C24.893752,35.9576866 25.159874,36 25.4199478,36 C26.4239537,36 27.3634452,35.3713433 27.7081942,34.3679104 L27.8392391,33.9850746 L31.4681761,33.9850746 L39.5324804,33.9850746 L43.1956907,33.9850746 C43.3872179,35.1295522 44.3831595,36 45.5807087,36 C46.9173671,36 48,34.9179851 48,33.5820896 L48,31.5671642 C48,30.3743284 47.1209908,29.4293284 45.9839239,29.2318657 L45.9839239,29.2318657 Z" id="Fill-10"></path>
                </g>
                <path d="M420,210 C420,325.980319 325.980319,420 210,420 C94.0196809,420 0,325.980319 0,210 C0,94.0196809 94.0196809,0 210,0" id="Page-1" stroke="#EEE2FB" stroke-width="4"></path>
                <g id="Group-5" transform="translate(258.000000, 153.000000)" fill="#636F81">
                    <text id="ивент-платформа" font-family="Cormac-Book, Cormac" font-size="9" font-weight="300" line-spacing="26" letter-spacing="1.29999995">
                        <tspan x="0" y="68">ивент платформ</tspan>
                        <tspan x="95.2579993" y="68">а</tspan>
                    </text>
                    <text id="Делись-добром" font-family=".SFNSDisplay-Regular, .SF NS Display" font-size="28" font-weight="normal">
                        <tspan x="0" y="27">Делись</tspan>
                        <tspan x="0" y="60">добром</tspan>
                    </text>
                </g>
            </g>
        </g>
    </g>
</svg>